:SAMPLES-PER-SECOND 30
:FULLY-SPECIFIED
:DEGREES
96
root  -6.47751 39.8453 36.0841 66.6618 -87.4037 -67.8317
RightUpLeg  -23.6395 -4.47757 6.89788
RightLeg  17.7075 -11.0341 1.46182
RightFoot  -13.0637 0.0213323 7.06114
RightToes  1.16414e-010 0 -3.6325e-017
Spine  2.42414 -4.96389 8.04239
Spine1  5.27211 -4.81973 3.36819
HEad  -9.41548 3.38887 -5.40919
LeftShoulder1  6.8175 -10.5118 -42.2386
LeftArm  8.29302 22.5806 -31.0958
LeftForeArm  -176.416 -57.4076 -165.531
LeftHand  -0.244104 0.0205437 5.32207
RightShoulder  4.30916 8.4814 29.9905
RightArm  16.8148 -57.1499 16.8372
RightForeArm  154.431 64.7013 157.553
RightHand  -0.0234887 -9.97543 -0.757307
LeftUpLeg  7.3822 22.5951 9.30465
LeftLeg  36.8268 -20.2604 -15.2659
LeftFoot  10.8787 2.76459 -14.4779
LeftToes  9.04034e-010 7.59002e-011 -1.12606e-011
97
root  -8.65889 39.1521 36.5074 66.8438 -87.5748 -69.0174
RightUpLeg  -23.9836 -3.14978 7.73579
RightLeg  19.213 -12.0756 1.33749
RightFoot  -15.6102 0.167104 7.55988
RightToes  1.16414e-010 0 -3.6325e-017
Spine  3.76089 -5.23138 10.205
Spine1  5.51492 -4.11436 1.91618
HEad  -8.918 3.24229 -4.24769
LeftShoulder1  6.70597 -10.6514 -41.0525
LeftArm  8.84937 21.176 -31.8286
LeftForeArm  -176.482 -58.3319 -165.018
LeftHand  -0.244104 0.0205437 5.32207
RightShoulder  4.21687 8.5658 28.949
RightArm  10.6523 -59.8408 21.1661
RightForeArm  153.309 65.1473 157.001
RightHand  0.0457966 -10.151 -2.36167
LeftUpLeg  5.33588 17.5835 9.16549
LeftLeg  46.1326 -17.1246 -17.8583
LeftFoot  8.19705 2.92722 -17.1836
LeftToes  9.04034e-010 7.59002e-011 -1.12606e-011
98
root  -10.8549 38.2944 36.9271 58.1779 -87.5666 -61.1734
RightUpLeg  -24.9562 -5.4966 10.1654
RightLeg  24.7048 -8.55264 -0.532074
RightFoot  -14.0135 -0.00115475 2.43072
RightToes  1.16414e-010 0 -3.6325e-017
Spine  4.69288 -5.47131 11.6799
Spine1  6.18139 -3.68397 1.45354
HEad  -8.67822 3.36577 -3.30028
LeftShoulder1  6.85514 -10.7779 -41.6389
LeftArm  8.2477 19.7733 -31.6066
LeftForeArm  -176.357 -58.54 -164.912
LeftHand  -0.244104 0.0205437 5.32207
RightShoulder  3.98485 8.14231 28.2167
RightArm  4.56167 -60.1368 25.133
RightForeArm  155.278 65.3893 156.981
RightHand  0.0629821 -9.8495 -2.92501
LeftUpLeg  2.30933 14.3297 10.3098
LeftLeg  55.9426 -12.9409 -19.2158
LeftFoot  4.50776 2.3069 -16.6314
LeftToes  9.04034e-010 7.59002e-011 -1.12606e-011
99
root  -13.1099 37.456 37.3381 54.3232 -86.8113 -58.1818
RightUpLeg  -26.1143 -7.91666 13.5151
RightLeg  32.3658 -5.43876 -3.97106
RightFoot  -10.5942 -0.0334498 -7.27882
RightToes  1.16414e-010 0 -3.6325e-017
Spine  5.67753 -5.79297 13.053
Spine1  6.78157 -3.85037 2.08154
HEad  -10.7555 2.9219 -3.33012
LeftShoulder1  7.06317 -10.5099 -43.8644
LeftArm  6.61935 17.9687 -31.0571
LeftForeArm  -177.052 -59.4465 -164.308
LeftHand  -0.244104 0.0205437 5.32207
RightShoulder  3.90165 7.49404 29.5193
RightArm  2.30646 -56.2259 24.2804
RightForeArm  151.326 66.1067 155.779
RightHand  0.125761 -9.52735 -4.77843
LeftUpLeg  -1.72983 12.0256 13.0517
LeftLeg  64.8348 -8.05158 -17.474
LeftFoot  2.52422 1.5287 -12.6518
LeftToes  9.04034e-010 7.59002e-011 -1.12606e-011
100
root  -15.3654 36.7116 37.7189 58.7159 -84.9921 -63.7673
RightUpLeg  -26.1339 -4.78131 15.1453
RightLeg  40.9614 -8.45077 -8.13547
RightFoot  -10.7444 -0.0151095 -13.6931
RightToes  1.16414e-010 0 -3.6325e-017
Spine  7.27289 -6.40146 14.5208
Spine1  6.809 -4.75426 3.91595
HEad  -14.3635 2.17537 -3.68854
LeftShoulder1  7.36749 -10.2491 -46.7106
LeftArm  3.82216 16.7848 -30.8228
LeftForeArm  -178.004 -62.5865 -162.088
LeftHand  -0.244104 0.0205437 5.32207
RightShoulder  4.20559 7.18528 33.3758
RightArm  1.92049 -47.4387 20.4137
RightForeArm  143.075 68.4515 151.923
RightHand  0.23381 -9.94682 -6.98412
LeftUpLeg  -6.90629 9.10379 16.7268
LeftLeg  72.3065 -4.15578 -13.6376
LeftFoot  0.813046 0.773879 -7.28511
LeftToes  9.04034e-010 7.59002e-011 -1.12606e-011
101
root  -17.5901 36.2336 38.0261 61.5332 -83.0006 -67.7528
RightUpLeg  -24.1669 -4.29957 16.8825
RightLeg  47.2851 -9.32122 -10.975
RightFoot  -15.7582 -0.62442 -13.909
RightToes  1.16414e-010 0 -3.6325e-017
Spine  8.63807 -6.94167 15.3387
Spine1  6.44313 -5.79466 6.71585
HEad  -16.2268 1.41204 -3.69186
LeftShoulder1  7.93518 -10.6273 -49.001
LeftArm  0.262844 18.2418 -30.6274
LeftForeArm  -177.874 -66.3262 -159.051
LeftHand  -0.244104 0.0205437 5.32207
RightShoulder  4.79844 7.52378 37.4792
RightArm  -1.24915 -37.3172 19.5566
RightForeArm  144.917 71.1617 148.118
RightHand  0.194054 -10.8553 -5.26509
LeftUpLeg  -13.1068 5.56099 19.7891
LeftLeg  76.8793 -2.36632 -10.7847
LeftFoot  -1.4589 0.306786 -3.48794
LeftToes  9.04034e-010 7.59002e-011 -1.12606e-011
102
root  -19.9073 36.1788 38.2356 64.6226 -82.7412 -71.3821
RightUpLeg  -19.9385 -4.60841 16.9185
RightLeg  49.2201 -9.07767 -11.4765
RightFoot  -21.7785 -1.18526 -11.2873
RightToes  1.16414e-010 0 -3.6325e-017
Spine  8.29283 -6.58871 14.9435
Spine1  6.42196 -5.93648 8.87067
HEad  -15.4859 -0.193795 -3.33748
LeftShoulder1  8.4479 -11.2461 -49.995
LeftArm  -2.18695 22.5995 -29.7953
LeftForeArm  -177.698 -67.3873 -157.996
LeftHand  -0.244104 0.0205437 5.32207
RightShoulder  5.25112 8.02332 39.4535
RightArm  -6.96378 -30.1253 24.4264
RightForeArm  160.393 71.4653 149.789
RightHand  -0.0198734 -10.6874 -0.722415
LeftUpLeg  -19.097 3.18118 20.7369
LeftLeg  77.0568 -2.40146 -10.9514
LeftFoot  -3.9027 0.178331 -2.42581
LeftToes  9.04034e-010 7.59002e-011 -1.12606e-011
103
root  -22.384 36.6281 38.3368 82.2781 -84.798 -88.7155
RightUpLeg  -14.2779 -3.9712 14.6149
RightLeg  47.0901 -8.24825 -9.77807
RightFoot  -24.8075 -1.33757 -9.84728
RightToes  1.16414e-010 0 -3.6325e-017
Spine  6.24338 -5.0403 13.8165
Spine1  6.42541 -4.535 8.29421
HEad  -13.1192 -3.22287 -1.73872
LeftShoulder1  8.31223 -11.2249 -49.2489
LeftArm  -1.68427 28.1703 -28.2112
LeftForeArm  -179.649 -65.1571 -159.879
LeftHand  -0.244104 0.0205437 5.32207
RightShoulder  5.31793 8.15162 39.5119
RightArm  -10.4017 -26.3901 32.5485
RightForeArm  169.586 68.8058 154.862
RightHand  -0.0394816 -10.1409 -0.402446
LeftUpLeg  -23.056 3.41073 19.2797
LeftLeg  72.2015 -4.07986 -13.1623
LeftFoot  -6.6829 0.145267 -2.59193
LeftToes  9.04034e-010 7.59002e-011 -1.12606e-011
104
root  -24.9071 37.5243 38.3425 134.175 -86.1041 -139.545
RightUpLeg  -8.3394 -1.90751 10.9436
RightLeg  42.1952 -6.7524 -6.87006
RightFoot  -24.251 -1.21648 -9.2732
RightToes  1.16414e-010 0 -3.6325e-017
Spine  3.55612 -2.71349 12.6232
Spine1  5.82745 -2.05792 5.15043
HEad  -10.0291 -7.31206 0.810688
LeftShoulder1  7.56701 -10.4567 -47.2758
LeftArm  0.80974 33.4366 -26.3386
LeftForeArm  177.094 -61.6906 -162.324
LeftHand  -0.244104 0.0205437 5.32207
RightShoulder  5.16208 7.91022 39.1296
RightArm  -7.69432 -24.1951 38.4863
RightForeArm  162.544 65.5871 157.598
RightHand  0.143521 -9.9855 -4.90277
LeftUpLeg  -24.5475 5.88652 16.4556
LeftLeg  62.423 -7.14637 -14.1066
LeftFoot  -8.82788 0.118803 -2.99868
LeftToes  9.04034e-010 7.59002e-011 -1.12606e-011
105
root  -27.3292 38.5839 38.2975 -179.263 -82.7794 175.444
RightUpLeg  -3.15286 0.96373 7.2937
RightLeg  36.1762 -4.56715 -3.87669
RightFoot  -21.5545 -0.834548 -7.65745
RightToes  1.16414e-010 0 -3.6325e-017
Spine  0.802739 -0.304128 11.5402
Spine1  5.07517 0.390797 1.46246
HEad  -6.87048 -11.6307 2.97662
LeftShoulder1  6.92902 -9.81752 -45.3269
LeftArm  2.23185 38.637 -24.8915
LeftForeArm  176.441 -58.5297 -164.309
LeftHand  -0.244104 0.0205437 5.32207
RightShoulder  5.04255 7.73788 38.7765
RightArm  -0.372385 -22.5494 39.5552
RightForeArm  157.866 62.7596 159.622
RightHand  0.138177 -8.89209 -6.07386
LeftUpLeg  -24.6922 9.45704 13.5853
LeftLeg  49.1549 -10.6781 -12.5865
LeftFoot  -8.68372 0.145912 -3.99487
LeftToes  9.04034e-010 7.59002e-011 -1.12606e-011
106
root  -29.5873 39.4524 38.2573 -171.883 -78.0153 169.628
RightUpLeg  0.337096 3.81522 4.43319
RightLeg  31.7427 -2.14062 -1.67534
RightFoot  -17.5961 -0.39225 -4.93957
RightToes  1.16414e-010 0 -3.6325e-017
Spine  -1.77175 1.59621 10.7019
Spine1  5.23955 2.21465 -1.38359
HEad  -5.2657 -14.8105 4.75798
LeftShoulder1  6.84305 -9.95459 -44.2599
LeftArm  0.692011 44.2235 -24.209
LeftForeArm  178.195 -55.8402 -165.928
LeftHand  -0.244104 0.0205437 5.32207
RightShoulder  5.08332 8.00259 38.1306
RightArm  7.38865 -20.975 37.8219
RightForeArm  166.232 60.2112 162.332
RightHand  -0.0709883 -9.46601 0.441431
LeftUpLeg  -24.2089 13.7436 11.353
LeftLeg  35.3937 -15.6037 -11.1851
LeftFoot  -8.078 0.179569 -4.63129
LeftToes  9.04034e-010 7.59002e-011 -1.12606e-011
107
root  -31.694 39.9336 38.268 -171.251 -73.0746 169.916
RightUpLeg  1.54263 6.42325 2.29357
RightLeg  31.829 -0.155175 -0.338861
RightFoot  -12.7866 -0.113601 -1.78213
RightToes  1.16414e-010 0 -3.6325e-017
Spine  -3.21131 2.66819 10.237
Spine1  6.18236 3.38497 -3.50136
HEad  -4.52371 -16.6765 6.20532
LeftShoulder1  6.95273 -10.3335 -43.7122
LeftArm  -3.27326 49.4452 -24.9157
LeftForeArm  179.263 -53.6574 -167.066
LeftHand  -0.244104 0.0205437 5.32207
RightShoulder  5.234 8.56046 37.363
RightArm  13.6199 -19.1242 35.9109
RightForeArm  176.554 58.657 164.242
RightHand  -0.235066 -8.49514 6.92896
LeftUpLeg  -22.8984 18.6551 9.7564
LeftLeg  24.2415 -22.7112 -10.5012
LeftFoot  -8.72593 0.176624 -5.53858
LeftToes  9.04034e-010 7.59002e-011 -1.12606e-011
108
root  -33.6529 40.0019 38.3424 -171.786 -68.0556 170.382
RightUpLeg  0.613023 8.84789 0.3052
RightLeg  37.0646 0.507473 0.132451
RightFoot  -8.2523 -0.0904236 1.38705
RightToes  1.16414e-010 0 -3.6325e-017
Spine  -2.47173 2.81233 9.20238
Spine1  6.63782 3.75368 -4.75968
HEad  -4.42017 -17.291 7.11474
LeftShoulder1  6.88333 -10.3701 -43.131
LeftArm  -7.80294 53.2518 -26.8885
LeftForeArm  179.305 -51.8393 -167.866
LeftHand  -0.244104 0.0205437 5.32207
RightShoulder  5.33095 8.91858 36.9067
RightArm  18.3927 -17.5232 34.2429
RightForeArm  177.631 58.3929 164.483
RightHand  -0.147096 -6.8324 7.86611
LeftUpLeg  -21.0221 22.0971 8.62039
LeftLeg  18.1268 -25.4618 -8.79128
LeftFoot  -7.56697 0.35573 -8.9902
LeftToes  9.04034e-010 7.59002e-011 -1.12606e-011
